<?xml version="1.0" encoding="utf-8"?>
<!-- Generator: Adobe Illustrator 22.0.0, SVG Export Plug-In . SVG Version: 6.00 Build 0)  -->
<svg version="1.1" id="Слой_2" xmlns="http://www.w3.org/2000/svg" xmlns:xlink="http://www.w3.org/1999/xlink" x="0px" y="0px"
	 viewBox="0 0 841.9 1190.6" style="enable-background:new 0 0 841.9 1190.6;" xml:space="preserve">
<style type="text/css">
	.st0{fill:#4DAEAD;}
	.st1{fill:#FFFFFF;}
	.st2{fill:none;stroke:#000000;stroke-width:2;stroke-miterlimit:10;}
</style>
<path d="M425,201.1c98.8,0,242.6,90.3,242.6,257.5c0,224.2-199.1,313.5-199.1,438.5c0,42.2,38,66.7,32.9,72.6
	c-10.2,10.3-18.5-13.9-45.2-13.9c-17.7,0-38.8,9.3-54,9.3c-15.2,0-43.5-12.2-56.2-12.2s-14.8,11-23.2,7.6
	c-14.2-7.2,31.2-39.8,31.2-112.3c0-142.7-164.7-190-164.7-370.5C189.4,333.1,282.5,201.1,425,201.1z"/>
<path class="st0" d="M337.9,947.1c0,0,29.8-39.9,29.8-102.3s-22.5-96.9-84.6-176.1c-57.1-78.5-57.7-91.4-57.7-91.4
	c14.1,12.7,70.1,45.9,125.9,29c0,0-74.8,10.3-129-39.9c-7.4-7.8-16.9-51.1-16.9-96.7c0-84,54.9-254.2,220.4-254.2
	c125.8,0,226.7,127.1,226.7,237.3c0,68-13.1,99.6-15.2,103c-2.1,3.4-65.9,61.2-125,36.3c0,0,35.9,38.4,123.3-26.2
	c0,0-21.3,73.7-96.7,159.8s-106.4,172.9-67.1,226.1c0,0-8-2.1-19-2.1c-11,0-38,8.2-49.6,8.2S356.6,945.8,337.9,947.1z"/>
<path d="M401.1,652c0,0-1.6,9.3,3,13.6c0,0-0.2-11.4,36.1-10.5s37.2,7.4,37.2,7.4s2.2-6.3,0-12.7c0,0,1.3,4.3-12.4,3.3
	c-13.6-1-38.2-1.4-52.9,1C404.3,656,401.1,652,401.1,652z"/>
<path d="M422.8,663.1c0,0,14.4,6.5,29.5,0C452.2,663.1,437.7,677,422.8,663.1z"/>
<ellipse cx="423.7" cy="606.7" rx="6.3" ry="8.4"/>
<ellipse cx="448.3" cy="605.3" rx="6.3" ry="8.4"/>
<path d="M217.3,533.4c0,0,55.9,39.6,117.5,53.4C334.8,586.8,260.6,581.3,217.3,533.4z"/>
<path d="M527,579.3c0,0,38.5-6.7,78.5-28.1C605.5,551.2,573.9,578.6,527,579.3z"/>
<path d="M646.5,482.2c0,0,0.8,19.8-22.2,32.7C624.3,514.9,637.6,504.5,646.5,482.2z"/>
<path d="M612.9,521.6c0,0-23.2,24.5-65.2,31.9C547.7,553.5,577.2,543.2,612.9,521.6z"/>
<path d="M529.7,563.2c0,0-55.7,14.1-51.7-27C478,536.2,460.9,586.9,529.7,563.2z"/>
<path d="M482.2,527.3c0,0,34-36.1,65.4-49.8C547.7,477.5,521.9,475.8,482.2,527.3z"/>
<path d="M556.2,468.9c0,0,7.8-7.8,24.1-9.3C580.3,459.6,569.5,466.9,556.2,468.9z"/>
<path d="M589.1,458.3c0,0,20.3-9.9,37.6,0C626.6,458.3,616.3,455.1,589.1,458.3z"/>
<path d="M646.5,446.3c0,0-33.6-33.1-107.7-13.9c-54.3,13.9-66.3,56.6-68.8,75.2c0,0,10.8-54.7,70.9-70.5S646.5,446.3,646.5,446.3z"
	/>
<ellipse transform="matrix(0.9152 -0.403 0.403 0.9152 -158.1539 270.8985)" cx="564.7" cy="511.3" rx="76.6" ry="25.5"/>
<ellipse transform="matrix(0.4485 -0.8938 0.8938 0.4485 -302.8337 552.4703)" cx="296.2" cy="521.6" rx="27.2" ry="88.5"/>
<circle class="st1" cx="530.7" cy="531.5" r="7.8"/>
<circle class="st1" cx="512.3" cy="529.4" r="3.2"/>
<circle class="st1" cx="599.7" cy="490.7" r="3.3"/>
<circle class="st1" cx="612.9" cy="488.3" r="5.8"/>
<path d="M210.6,499.1c0,0,22.8,33.7,61,51.8C271.6,550.8,231,544.8,210.6,499.1z"/>
<path d="M281.4,553.5c0,0,48.2,20.9,79,19.6c30.8-1.3,31.5-20.1,22-31.7c0,0,10.3,2.2,10.3,15.9S366,598.5,281.4,553.5z"/>
<path d="M368.2,521.4c0,0-22.6-23.6-59.1-35.7C309.1,485.8,328.3,496.5,368.2,521.4z"/>
<path d="M303.2,482.6c0,0-23.6-15.6-53.4-19.2C249.8,463.4,273.6,472,303.2,482.6z"/>
<path d="M210.6,451.8c0,0,22.5-13.3,69.4-11.2c46.9,2.1,93.5,33.8,107.9,65.7c0,0-39.9-56.6-107.5-60.4
	C239.1,442.9,210.6,451.8,210.6,451.8z"/>
<circle class="st1" cx="237.9" cy="494.7" r="7.3"/>
<circle class="st1" cx="230" cy="481.6" r="3.2"/>
<circle class="st1" cx="345" cy="537.1" r="2.6"/>
<circle class="st1" cx="354.4" cy="550.8" r="6"/>
<path d="M149.7,254.6c0,0-30.8-23.9-45.2,15.2C104.6,269.8,123.1,257,149.7,254.6z"/>
<path d="M65,315c0,0-5.7-28.1,63.2-49.8c68.9-21.7,79.2-5.1,81.9,2.9c0,0-15.7-18.8-79.9,2.5C79.1,287.1,73.7,301.6,65,315z"/>
<ellipse transform="matrix(0.9524 -0.305 0.305 0.9524 -84.6728 57.1715)" cx="140.7" cy="299.6" rx="76.2" ry="26"/>
<ellipse transform="matrix(0.9524 -0.305 0.305 0.9524 -85.4834 57.578)" class="st1" cx="141.6" cy="302.4" rx="30.4" ry="10.4"/>
<ellipse transform="matrix(0.866 -0.5 0.5 0.866 -140.8218 91.4404)" class="st1" cx="100.2" cy="308.5" rx="5.3" ry="3.4"/>
<ellipse transform="matrix(0.866 -0.5 0.5 0.866 -134.4541 95.8595)" class="st1" cx="111.6" cy="298.8" rx="5.3" ry="3.4"/>
<ellipse transform="matrix(0.866 -0.5 0.5 0.866 -128.6401 102.0598)" class="st1" cx="126.1" cy="291.1" rx="5.3" ry="3.4"/>
<ellipse transform="matrix(0.866 -0.5 0.5 0.866 -146.4605 92.287)" class="st1" cx="99" cy="319.4" rx="5.3" ry="3.4"/>
<ellipse transform="matrix(0.866 -0.5 0.5 0.866 -146.9007 98.7159)" class="st1" cx="110.8" cy="323.5" rx="5.3" ry="3.4"/>
<ellipse transform="matrix(0.866 -0.5 0.5 0.866 -144.2192 106.7778)" class="st1" cx="127.1" cy="322.5" rx="5.3" ry="3.4"/>
<ellipse transform="matrix(0.866 -0.5 0.5 0.866 -123.6289 108.9827)" class="st1" cx="141.6" cy="285.2" rx="5.3" ry="3.4"/>
<ellipse transform="matrix(0.866 -0.5 0.5 0.866 -119.667 116.8762)" class="st1" cx="158.3" cy="281.7" rx="5.3" ry="3.4"/>
<ellipse transform="matrix(0.866 -0.5 0.5 0.866 -118.0218 124.1185)" class="st1" cx="172.6" cy="282.3" rx="5.3" ry="3.4"/>
<ellipse transform="matrix(0.866 -0.5 0.5 0.866 -119.0902 129.7934)" class="st1" cx="182.7" cy="287.1" rx="5.3" ry="3.4"/>
<ellipse transform="matrix(0.866 -0.5 0.5 0.866 -123.9359 132.2608)" class="st1" cx="184.8" cy="297.4" rx="5.3" ry="3.4"/>
<ellipse transform="matrix(0.866 -0.5 0.5 0.866 -129.3541 127.9789)" class="st1" cx="174.1" cy="305.4" rx="5.3" ry="3.4"/>
<ellipse transform="matrix(0.866 -0.5 0.5 0.866 -134.8422 121.6636)" class="st1" cx="159.6" cy="312.5" rx="5.3" ry="3.4"/>
<ellipse transform="matrix(0.866 -0.5 0.5 0.866 -139.7923 114.8601)" class="st1" cx="144.4" cy="318.3" rx="5.3" ry="3.4"/>
<polygon points="101.2,262.8 101.2,269.8 45.5,277.5 "/>
<polygon points="146.2,246.7 154.1,249.7 198.6,212.5 "/>
<polygon points="143.3,244.3 137.4,243.7 156,217.5 "/>
<polygon points="105.8,253.6 102.5,259.3 71.4,255.4 "/>
<g id="XMLID_1_">
	<g>
		<path class="st1" d="M270.4,717.5c9.5,10.6-10.3,35.7-37.7,61.7c-1-4.1-2.4-7.9-4.2-11.6c5.7-6,8.3-10.9,5.3-14.3
			c-2.5-2.2-6.7-1.4-12.5,2.7c-3.7-4.8-8.1-8.9-13-12.4C241.2,719.9,262,710.3,270.4,717.5z"/>
		<path d="M232.7,779.2c1.2,4.9,1.9,9.9,1.9,15.1c0,34.5-28.3,62.4-63.1,62.4c-11.5,0-22.2-3-31.5-8.4c4.4-2.3,8.8-4.8,13.3-7.4
			c5.7,2.2,11.8,3.3,18.2,3.3c27.9,0,50.6-22.4,50.6-50c0-1.7-0.1-3.3-0.3-5C225.5,786,229.2,782.6,232.7,779.2z"/>
		<path class="st1" d="M228.5,767.6c1.8,3.7,3.2,7.5,4.2,11.6c-3.5,3.3-7.2,6.7-10.9,10.1c-0.5-4.5-1.5-8.7-3.1-12.8
			C222.5,773.4,225.8,770.4,228.5,767.6z"/>
		<path d="M221.3,756c2.8,3.5,5.3,7.4,7.2,11.6c-2.7,2.8-6,5.8-9.8,8.9c-7.2-18.8-25.6-32.2-47.2-32.2c-27.9,0-50.6,22.4-50.6,50
			c0,15.1,6.8,28.7,17.6,37.8c-4.7,2.3-9,4.1-12.6,5.3c-2.9-3-5.6-6.3-7.9-9.8c-2.8-4.4-5.1-9.3-6.8-14.4
			c-1.9-5.9-2.9-12.3-2.9-18.9c0-34.5,28.3-62.4,63.1-62.4c13.7,0,26.4,4.4,36.8,11.8C213.2,747.1,217.6,751.3,221.3,756z"/>
		<path class="st1" d="M221.8,789.3c0.2,1.7,0.3,3.3,0.3,5c0,27.6-22.6,50-50.6,50c-6.4,0-12.6-1.2-18.2-3.3
			c12-7.1,24.3-15.3,35.8-24.1C199.9,808.3,211.2,798.8,221.8,789.3z"/>
		<path class="st1" d="M218.7,776.5c1.6,4.1,2.6,8.3,3.1,12.8c-10.6,9.5-21.9,18.9-32.7,27.6c-11.6,8.8-23.8,16.9-35.8,24.1
			c-5.4-2.1-10.4-5.1-14.7-8.8c13.1-6.3,29.5-16.5,44.2-27.7C194.6,795,208.3,785.2,218.7,776.5z"/>
		<path class="st1" d="M171.5,744.3c21.6,0,40,13.4,47.2,32.2c-10.4,8.7-24.1,18.4-36,27.9c-14.7,11.2-31.1,21.4-44.2,27.7
			c-10.7-9.2-17.6-22.7-17.6-37.8C120.9,766.7,143.6,744.3,171.5,744.3z"/>
		<path class="st1" d="M153.2,840.9c-4.5,2.6-8.9,5.1-13.3,7.4c-5.2-2.9-9.9-6.6-14-10.9c3.6-1.2,7.9-3,12.6-5.3
			C142.8,835.9,147.8,838.9,153.2,840.9z"/>
		<path class="st1" d="M125.9,837.4c4.1,4.3,8.8,8,14,10.9c-34,18.2-63.9,27.2-69.5,19.7c-8.7-11.3,7.7-30.8,40.8-54.8
			c1.7,5.1,4,10,6.8,14.4c-3.3,3.7-5,7.3-3.6,10.1C115.9,839.6,120,839.3,125.9,837.4z"/>
	</g>
	<g>
		<path class="st2" d="M111.3,813.2L111.3,813.2c-33.1,24.1-49.6,43.5-40.8,54.8c5.6,7.4,35.5-1.5,69.5-19.7
			c4.4-2.3,8.8-4.8,13.3-7.4c12-7.1,24.3-15.3,35.8-24.1c10.8-8.6,22.1-18,32.7-27.6c3.7-3.3,7.4-6.7,10.9-10.1
			c27.4-26,47.2-51.1,37.7-61.7c-8.4-7.2-29.2,2.4-62.2,26.1"/>
		<path class="st2" d="M118.1,827.6c-3.3,3.7-5,7.3-3.6,10.1c1.4,1.9,5.6,1.6,11.5-0.3c3.6-1.2,7.9-3,12.6-5.3
			c13.1-6.3,29.5-16.5,44.2-27.7c11.9-9.5,25.6-19.3,36-27.9c3.8-3.1,7.1-6.1,9.8-8.9c5.7-6,8.3-10.9,5.3-14.3
			c-2.5-2.2-6.7-1.4-12.5,2.7c-0.1,0.1-0.1,0.1-0.2,0.1"/>
	</g>
</g>
<circle cx="729.8" cy="361" r="50.4"/>
<path class="st1" d="M711.8,327.5c5.4-2.9,11.5-4.5,18-4.5c13.8,0,25.8,7.3,32.5,18.2c0,0-6.7,7.2-11.8,6.4
	c-5.1-0.9-9.2-8.3-14.4-7.9s-7.7,3.9-11.3,2.6C721.1,341,711.8,327.5,711.8,327.5z"/>
<path class="st1" d="M767.4,369.5c-1.5,12.7-6.8,20.8-15.4,25.2c0,0,0.9-7.8-0.9-12.6c-1.8-4.8-6-9.2-4.5-12.3
	S767.4,369.5,767.4,369.5z"/>
<path class="st1" d="M723.8,398.5c-18.2-2.9-32-18.6-32-37.6c0-1.2,0.1-2.3,0.2-3.5c0,0,18.9,1.5,22,6c3.1,4.5-3,11.8,0.6,13.4
	c3.6,1.6,8,1.1,9.7,2.9C725.8,381.6,723.8,398.5,723.8,398.5z"/>
<path class="st1" d="M692.9,351.9c2.1-8.7,7.3-16.2,14.2-21.4c0,0,10.5,16.9,15.1,17.4c4.6,0.5,9.6-2.8,14.1-2.7
	c4.5,0.1,9.8,8.3,14.7,7.9c4.9-0.4,14.3-5.6,14.3-5.6c1.6,4.2,2.4,8.7,2.4,13.4c0,1.6,0,3.1-0.1,4.6c0,0-21.8-4.5-24.5,0.7
	c-4.5,7.5,2.9,15.7,4.5,19.3c1.6,3.5,0,10.9,0,10.9c-5.1,1.7-11,2.5-17.9,2.5c0,0,1.1-20.1-0.6-23.2c-1.7-3.2-8-1.7-9.5-3.1
	c-1.5-1.4,1.8-10.3-1.6-13.7C714.7,355.6,692.9,351.9,692.9,351.9z"/>
<ellipse cx="668.5" cy="823.5" rx="92.8" ry="91.2"/>
<path class="st1" d="M739,787.7c-13.2-25-39.8-42.1-70.4-42.1c-6.5,0-12.9,0.8-19,2.2c0,0,16.6,20.8,31.2,21.5s22.6-1,27.9,1.1
	C713.9,772.5,739,787.7,739,787.7z"/>
<path class="st1" d="M739,867.1c3.9-7.7,6.4-16.5,7.7-26.2c0,0-11,0.6-17.8-2.2c-6.8-2.8-14.7-8.6-22.6-8.7s-17.3,4.1-24.5,2.1
	c-13.3-2-37.5-37-50.1-38.8c-12.6-1.8-36.1-0.4-36.1-0.4c-2.4,5.5-4.2,11.4-5.2,17.5c0,0,40.3,1.5,48.1,4.5
	c7.8,3,32.3,35.2,39.8,36.3c7.5,1.1,35.5-1.4,40.4,0.3S739,867.1,739,867.1z"/>
<path class="st1" d="M728.9,881.2c2.8-2.9,5.3-6,7.4-9.4c0,0-14.8-13-20.5-15c-5.7-2-38.2,1.6-42.8-1c-4.6-2.5-33-34.8-37.2-36.4
	s-46.2-4.5-46.2-4.5c-0.3,2.8-0.5,5.7-0.5,8.6c0,5.1,0.5,10,1.4,14.8c0,0,18.1-1.5,26.7,2.2c16.9,6.5,36.9,36.1,44.7,37.4
	c7.8,1.3,32.3,4.8,44.7,17.4c1.8-0.7,3.6-1.4,5.2-2.2c0,0-15.1-14.2-14-17.8C699.2,871.9,718.1,872,728.9,881.2z"/>
<path class="st1" d="M716.4,890.9c2.9-1.7,5.6-3.5,8.1-5.6c0,0-14.4-8.7-18.8-7.2C704,878.6,716.4,890.9,716.4,890.9z"/>
<path class="st1" d="M653.4,900c4.9,0.9,10,1.4,15.2,1.4c12.3,0,22.9-1.4,32-4c0,0-10.2-8.8-23.1-12.1s-22.5-3.2-25.4-5.8
	c-2.9-2.5-26.8-30-36.9-34c-10.1-4-23.2-1.9-23.2-1.9c2,7.5,5.2,14.5,9.3,20.9c0,0,17.7-0.5,33.3,14.7
	C650.2,894.5,653.4,900,653.4,900z"/>
<path class="st1" d="M605,870.1c9.3,12.3,22.3,21.8,37.3,27c0,0-8.4-12.5-17.7-19C615.3,871.5,605,870.1,605,870.1z"/>
<path class="st1" d="M607.7,773.5c3-3.5,6.3-6.7,9.8-9.7c0,0,16.3,10,14,12.8C630.2,778.4,607.7,773.5,607.7,773.5z"/>
<path class="st1" d="M626.1,757.7c-1.8-1-3.4,2.2-5.1,3.4c0,0,19.6,14,15.9,18.6s-32.3-2.3-32.3-2.3c-2.3,3.1-4.4,6.4-6.2,9.8
	c0,0,29-0.6,38,2.8c19,7.8,35.7,35.9,46.2,37.3c10.5,1.3,22.6-1.8,29.9,0c7.4,1.8,23.8,9.2,34.9,7.9c0.3-3.8,0.5-7.7,0.5-11.6
	c0-2.2-0.1-4.4-0.3-6.6c0,0-16.7,1.2-23.1-1.6c-6.4-2.8-24.5-25.5-30.5-27.6c-5.9-2.1-24.2,2.5-27.9,0
	C662.3,785.2,634.7,762.2,626.1,757.7z"/>
<path class="st1" d="M642.1,750.1c-4.4,0.9-7.8,3.1-11.4,5c0,0,35.5,26.2,37.9,27.3c2.4,1.1,23-1.8,27.4,0
	c4.4,1.8,27,28.1,34.1,29.1c7.1,1,16.8,0,16.8,0c-0.9-5.5-2.3-10.8-4.3-15.9c0,0-30.1-19.6-37-20.9c-6.9-1.3-23,1.8-29.5-1.1
	C669.5,770.8,651.9,760,642.1,750.1z"/>
<ellipse transform="matrix(0.4532 -0.8914 0.8914 0.4532 -344.4059 1053.8103)" cx="686.8" cy="807.7" rx="9.8" ry="18"/>
<ellipse transform="matrix(0.4532 -0.8914 0.8914 0.4532 -344.4059 1053.8103)" class="st1" cx="686.8" cy="807.7" rx="5.7" ry="10.5"/>
<ellipse transform="matrix(0.7056 -0.7086 0.7086 0.7056 10.5742 585.4124)" cx="709.8" cy="280" rx="15.1" ry="37.1"/>
<ellipse transform="matrix(0.7056 -0.7086 0.7086 0.7056 -267.8148 753.1951)" cx="772.6" cy="698.9" rx="15.1" ry="36.8"/>
<ellipse transform="matrix(0.7056 -0.7086 0.7086 0.7056 -563.0135 446.0639)" cx="255.3" cy="900.6" rx="15.1" ry="36.7"/>
<ellipse transform="matrix(0.7056 -0.7086 0.7086 0.7056 -612.2708 361.2747)" cx="128.7" cy="917.5" rx="7.6" ry="18.5"/>
<ellipse transform="matrix(0.7056 -0.7086 0.7086 0.7056 -491.9894 454.44)" cx="300.9" cy="819.3" rx="10.7" ry="26.3"/>
<ellipse transform="matrix(0.7056 -0.7086 0.7086 0.7056 -415.2814 334.0544)" cx="194.4" cy="666.8" rx="8.9" ry="21.6"/>
<ellipse transform="matrix(0.7056 -0.7086 0.7086 0.7056 -403.6132 259.576)" cx="110.6" cy="615.5" rx="9.9" ry="23.7"/>
<ellipse transform="matrix(0.7056 -0.7086 0.7086 0.7056 -337.0859 208.6111)" cx="82.5" cy="510" rx="15.5" ry="36.6"/>
<ellipse transform="matrix(0.7056 -0.7086 0.7086 0.7056 -264.1698 235.1476)" cx="150.9" cy="435.5" rx="10.2" ry="24.4"/>
<ellipse transform="matrix(0.7056 -0.7086 0.7086 0.7056 -244.7258 172.3192)" cx="85" cy="380.7" rx="7.3" ry="18.4"/>
<ellipse transform="matrix(0.7056 -0.7086 0.7086 0.7056 -113.26 244.6141)" cx="237.8" cy="258.6" rx="7.3" ry="18.5"/>
<ellipse transform="matrix(0.7057 -0.7086 0.7086 0.7057 -126.0105 121.5861)" cx="83.3" cy="212.5" rx="7.3" ry="18.7"/>
<ellipse transform="matrix(0.7056 -0.7086 0.7086 0.7056 25.344 502.5862)" cx="617.5" cy="220.8" rx="9.5" ry="23.2"/>
<ellipse transform="matrix(0.7056 -0.7086 0.7086 0.7056 -114.9222 680.306)" cx="761.3" cy="478.5" rx="9.5" ry="23.7"/>
<ellipse transform="matrix(0.7056 -0.7086 0.7086 0.7056 65.4757 617.3536)" cx="775.7" cy="229.9" rx="6.6" ry="16.3"/>
<ellipse transform="matrix(0.7056 -0.7086 0.7086 0.7056 44.0638 628.7149)" cx="778.7" cy="261.3" rx="6.6" ry="16.3"/>
<ellipse transform="matrix(0.7056 -0.7086 0.7086 0.7056 -191.6493 686.451)" cx="730.4" cy="573.9" rx="6.6" ry="16.5"/>
<ellipse transform="matrix(0.7057 -0.7085 0.7085 0.7057 -264.1923 670.7464)" cx="675.3" cy="653.4" rx="9.4" ry="24.7"/>
<ellipse transform="matrix(0.7056 -0.7086 0.7086 0.7056 -443.8419 822.7529)" cx="768.3" cy="945.6" rx="7.2" ry="18.1"/>
<ellipse transform="matrix(0.7056 -0.7086 0.7086 0.7056 -484.7282 646.3436)" cx="535.6" cy="906.6" rx="7.9" ry="20"/>
<g>
	<path d="M100.5,1107.9c-0.8-1.1-1.8-2.3-2.9-3.8l-3-3.8c-2.7-3.3-4.7-5.9-6-7.6c-4.5-6.1-7.8-11.6-9.7-16.6
		c-2.3-5.8-3.5-12.1-3.5-18.9c0-6.5,1-13,3-19.3c2.1-6.4,5.1-12.2,8.9-17.3c4-5.4,8.7-9.7,14.1-12.9c1.8-1,3.8-1.5,6.1-1.5
		c2.2,0,4.3,0.5,6.3,1.3c1.5,0.7,2.7,1.7,3.5,3c0.9,1.6,0.5,2.9-1.1,3.9c-6.9,4.1-12.3,9.8-16.2,17.2c-3.6,6.8-5.8,14.5-6.5,23
		c-0.6,7.1,0.4,14,3,20.6c2.2,5.4,5.8,11.4,10.8,17.9c0.5,0.6,1,1.3,1.6,2.1l0.9,1.1l0.9,1.1c1.5,1.9,2.8,3.5,3.7,4.6
		c2.9,3.8,5,7.2,6.6,10.1c4.3,8.2,4.5,15.6,0.8,22c-3.6,6.2-8.6,10.3-15,12.2c-2.5,0.8-5.7,1.3-9.4,1.6c-1.4,0.1-3.1,0.2-5.1,0.3
		l-2.7,0.1l-2.7,0.1c-2.1,0.1-4.1-0.2-6-0.9c-2.4-0.9-3.9-2.1-4.5-3.8c-0.6-1.7,0.1-3,2-4c0.7-0.4,1.6-0.6,2.6-0.8
		c0.8-0.2,1.6-0.3,2.3-0.3c0.8,0,1.8,0,2.9,0h2.9c2.2,0,4.1-0.1,5.4-0.4c3.9-0.7,6.8-2.8,8.9-6.3
		C107.9,1124.6,106.9,1116.5,100.5,1107.9z"/>
	<path d="M150.4,997.9c5.3-3.1,11-3.8,17.2-2.3c6.1,1.5,11,4.9,14.7,10.2c3.6,5.1,6.2,10.9,8,17.6c1.7,6.4,2.5,13.1,2.3,20.1
		c-0.5,14.8-4.6,27.2-12.4,37c-1.5,2-2.8,3.5-3.9,4.7c-1.5,1.8-3,3.3-4.3,4.6c-3.5,3.2-6.9,5.2-10.2,6.1c-1.6,0.4-3.2,0.5-4.8,0.3
		c0.9,19.2,0.6,37.1-0.8,53.5c-0.2,1.7-1.1,2.9-2.8,3.4c-1.5,0.5-3.3,0.4-5.4-0.1c-2-0.5-3.7-1.4-5.2-2.6c-1.5-1.3-2.2-2.7-2.1-4.1
		c1.7-19.7,1.9-40.1,0.5-61.3c-0.3-3.9-0.7-8.5-1.2-13.7l-0.8-6.9l-0.8-6.8c-1.3-11.4-1.9-20.6-2.1-27.4
		C136.1,1014.2,140.8,1003.4,150.4,997.9z M170.1,1066.2c5.9-13.6,8.1-26.3,6.4-38.1c-0.1-0.8-0.3-1.7-0.4-2.7
		c-0.2-1.2-0.4-2.4-0.7-3.7c-0.7-3.2-1.5-6-2.4-8.3c-2.5-6.7-5.5-9.1-8.9-7.2c-8.6,5-12.8,14.7-12.6,29.1c0,4.7,0.5,10.8,1.6,18.3
		c0.1,1,0.3,2.5,0.6,4.4l0.3,2.2l0.3,2.1c0.5,3.2,0.8,5.8,1,7.9c0.3,3.4,0.6,6.9,0.8,10.6c0.5,0.4,1,0.7,1.5,1.1
		c1.1-1,2.3-2.2,3.6-3.6c2.2-2.4,3.9-4.3,5-5.7C167.8,1070.5,169.2,1068.3,170.1,1066.2z"/>
	<path d="M255.7,1145c-2.3-0.1-5.3,0.1-9,0.6l-2.4,0.3l-2.4,0.3c-2,0.3-3.6,0.5-4.8,0.6c-7.9,0.8-13.9,0.2-18.1-1.9
		c-5.2-2.6-8.8-7-10.9-13.1c-1.6-4.7-2.3-10.5-2-17.5c0.1-3.4,0.2-11.4,0.2-23.8c0-12.4,0.4-27.4,1.3-45c0.8-17.5,1.9-30.6,3.2-39.3
		c0.5-3.3,1.6-4.9,3.2-4.8c1.4,0.1,2.8,1.2,4.3,3.5c6.9-1.4,16.5-2.1,29-2.1c2,0,4,0.6,6.1,1.7c2.3,1.2,3.8,2.7,4.6,4.4
		c0.8,1.7,0.5,3-0.9,3.9c-0.6,0.4-1.3,0.6-2.2,0.8c-0.7,0.2-1.5,0.2-2.3,0.2h-3.1h-3.1c-2.3,0-4.4,0.1-6.3,0.2
		c-4.7,0.3-8.8,0.9-12.4,1.8c-2.4,0.6-4.8,0.5-7.4-0.4c-1,7.4-1.5,16-1.4,25.8c0,3.4,0.1,7.8,0.3,12.9l0.2,6.5l0.2,6.5l0,3.7
		c0.8-0.5,1.8-0.9,2.9-1.1c1-0.2,1.9-0.3,2.8-0.3h18.8c2.1,0,4.1,0.4,6,1.1c2.3,0.9,3.8,2.2,4.4,3.9c0.6,1.7-0.1,3-2.1,3.9
		c-0.7,0.3-1.6,0.6-2.7,0.8c-0.8,0.1-1.6,0.2-2.3,0.2h-18.7c-1.5,0-3.1-0.2-4.6-0.6c-1.9-0.5-3.4-1.3-4.4-2.2
		c-0.1,8.8-0.9,18.1-2.2,27.9l-0.3,2.4l-0.3,2.4c-0.3,1.9-0.5,3.5-0.6,4.8c-0.4,3.6-0.5,6.8-0.3,9.6c0.1,1.9,0.8,3.2,1.9,4
		c0.9,0.6,2.6,1.1,4.9,1.4c3.6,0.5,8.5,0.3,14.8-0.3l3.7-0.4l3.7-0.4c2.8-0.2,5.3-0.3,7.4-0.2c1.6,0.1,3.1,1,4.3,2.9
		c1.1,1.6,1.8,3.7,2.3,6.1c0.4,2.3,0.3,4.3-0.1,6C258,1144.2,257.1,1145,255.7,1145z"/>
	<path d="M316,1097.2c-11.2-0.1-20.5-0.8-28-2.1c-2,14.4-4.1,30.5-6.3,48.2c-0.3,2.2-1,4.2-2.1,6.1c-1.2,2-2.7,3.6-4.6,4.6
		c-1.6,0.9-3,1-4.2,0.3c-1.3-0.7-1.8-2-1.6-3.9c2.8-22.9,5.3-42.2,7.6-57.9c-1.5-0.4-2.9-0.8-4.2-1.3c-1.4-0.4-2.3-1.7-2.8-3.8
		c-0.5-1.9-0.6-4.1-0.3-6.4c0.4-2.4,1.1-4.3,2.2-5.6c1.2-1.5,2.6-1.9,4.3-1.4c0.9,0.3,2.1,0.6,3.5,1.1l1.8-10.8
		c2.8-16.3,5.6-30.7,8.5-43.4l0.4-1.8l0.4-1.9c0.3-1.5,0.6-2.9,0.9-4c0.8-3.1,1.6-5.9,2.5-8.1c2.3-6.2,5.5-10.5,9.5-12.8
		c3.8-2.2,7.2-1.7,10.3,1.5c2.5,2.6,4.3,6.2,5.2,10.7c0.9,4.2,1.6,9.9,2.2,16.8l0.3,4.3l0.3,4.3c0.3,3.3,0.5,6.1,0.8,8.4
		c4.7,38.1,7.7,67,8.9,86.8c0.3,4.5-1.4,8.2-5,11.3c-0.5,0.5-1.2,0.9-1.9,1.2c-0.8,0.4-1.6,0.6-2.3,0.7c-1.9,0.2-3-0.7-3.1-2.6
		C318.7,1124.9,317.5,1112,316,1097.2z M291.5,1071.6l-0.5,3l-0.4,3c6.2,1,14.1,1.5,23.4,1.6l-1.7-15.2c-0.3-2.3-0.6-5-1.1-8.2
		l-0.6-4.2l-0.6-4.1c-0.9-6.8-1.5-12.3-1.7-16.6c0-0.5,0-1.2,0-2.1l0-1.3v-1.4c-0.1-2.5-0.2-4.7-0.4-6.5c-0.5-5.5-1.8-9.3-3.8-11.2
		l-0.2,0.8c-0.6,2.3-1.3,5.2-2.1,8.7c-1.5,7-2.8,13.2-3.9,18.6C295.3,1049.1,293.2,1060.8,291.5,1071.6z"/>
	<path d="M405.9,1136.5c0.4,1.4,0.1,3.1-0.8,5.4c-0.8,2-2,3.9-3.4,5.6c-1.5,1.8-2.9,2.8-4.2,3c-1.4,0.3-2.4-0.5-2.9-2.4
		c-2.6-9.3-7.1-19.6-13.4-30.9c-2-3.7-4.9-8.6-8.5-14.6l-4.3-7.2c-1.7-2.7-3.1-5.1-4.3-7.2l-0.3,0.6c-0.1,2.7-0.2,6.4-0.4,11.2
		l-0.2,5.6l-0.2,5.6c-0.2,8.8-0.1,16.3,0.4,22.4c0.1,1.8-0.7,3.1-2.4,4c-1.5,0.7-3.5,1-5.9,0.8c-2.3-0.2-4.4-0.8-6.1-1.8
		c-1.9-1-2.9-2.3-3-3.7c-0.6-7.4-1.3-19-2.1-34.8c-0.8-15.8-1.4-33.2-1.6-52.2c-0.3-19-0.3-32.8-0.1-41.4c0-1.5,1-2.5,2.8-3.1
		c1.7-0.5,3.7-0.6,6.1-0.2c2.4,0.4,4.4,1.1,6,2.3c1.8,1.3,2.7,2.7,2.7,4.3c-0.2,8.3,0.2,18.6,1.2,30.8l0.7,7.7l0.7,7.7
		c0.5,6.2,0.9,11.4,1.2,15.4c8.9-13.6,15.5-24.8,19.6-33.6c6.1-13,9.7-25.3,10.7-37c0.2-2.1,0.7-4.1,1.6-5.9
		c1.1-2.3,2.5-3.7,4.2-4.1c1.7-0.4,2.9,0.4,3.7,2.5c0.3,0.8,0.4,1.7,0.5,2.7c0.1,0.8,0.1,1.6,0,2.3c-1.9,22.2-11.9,47.8-30,76.7
		c1.3,2.2,2.8,4.8,4.5,7.7l4.6,7.7c3.9,6.4,6.9,11.5,9,15.3C398.5,1115.9,403.2,1126.8,405.9,1136.5z"/>
	<path d="M494.6,992.8c1.8,1.2,3.3,2.8,4.4,4.6c1.3,2,1.9,4,1.8,6c-0.1,20.3,1.2,49.8,3.9,88.5l1.5,22.1c0.5,8.3,1,15.6,1.3,22.1
		c0.9,16.5,1.4,31.2,1.4,44.3c0,1.9-0.9,2.9-2.7,2.9c-1.5,0-2.9-0.4-4.3-1.4c-1.8-1.2-3.3-2.8-4.4-4.6c-1.3-2-1.9-4-1.9-6
		c0-19.1-1.4-47.6-4-85.5c-6.1-0.4-13.1-1.1-20.8-2.2l0.3,6.9l0.3,6.9c0.3,6.2,0.5,10.8,0.6,13.9c0.4,10.8,0.1,20-0.8,27.6
		c-0.2,1.6-1.1,2.5-2.8,2.6c-1.5,0-3.4-0.5-5.5-1.7c-2.1-1.1-3.8-2.5-5.2-4.1c-1.5-1.8-2.2-3.4-2-4.9c0.8-6.9,1.1-15.2,0.8-24.7
		c-0.1-3.1-0.3-7.3-0.5-12.4l-0.3-6.2l-0.2-6.2c-7.1-1.1-12.9-1.9-17.2-2.4c-1.4-0.2-2.3-1.2-2.7-3.1c-0.3-1.7-0.1-3.7,0.5-6
		c0.6-2.3,1.6-4.3,2.9-5.8c1.4-1.7,3-2.4,4.6-2.2c3,0.4,6.8,0.9,11.4,1.6c-0.5-18.5-1.9-35.9-4-52.2c-0.3-2,0.4-3.2,1.8-3.6
		c1.3-0.4,3-0.1,5.2,0.8c2.1,0.9,3.9,2,5.5,3.5c1.7,1.6,2.7,3.1,2.8,4.5c2.1,15.8,3.4,32.2,4,49.3c7.8,1.2,14.5,2,20.1,2.5
		c-2-30.3-3-54.9-2.9-74.1c0-1.9,0.9-2.9,2.7-2.9C491.7,991.4,493.2,991.9,494.6,992.8z"/>
	<path d="M570.8,1094.3c-0.7,5.1-1.7,9.7-2.8,14c-1.5,6-3.3,11.1-5.5,15.3c-5.8,11.4-13.6,16-23.3,13.7
		c-10.1-2.4-15.9-9.1-17.5-20.2c-0.5-3.8-0.7-8.7-0.3-14.8l0.2-3.8l0.2-3.7c0.2-2.9,0.3-5.2,0.3-6.9l1-43l0.1-5.2v-5.2
		c0-4.4,0.1-7.9,0.2-10.4c0.3-8,1-14.9,2.3-20.6c0.4-1.6,1.5-2.5,3.3-2.5c1.6-0.1,3.5,0.5,5.6,1.7c2.1,1.1,3.7,2.5,5,4.1
		c1.4,1.8,2,3.4,1.6,4.8c-1.2,4.9-1.9,10.7-2.1,17.5c-0.1,2.3-0.2,5.2-0.2,8.8l0,4.4l0,4.4l-0.8,33.9c-0.3,12.5-0.7,22.6-1.2,30.3
		l-0.1,1.6l-0.1,1.7c-0.1,1.4-0.2,2.5-0.2,3.5c-0.1,2.6,0.1,4.9,0.5,6.8h0.1c1.7-0.7,3.2-1.6,4.6-2.8c5.5-5.8,9.4-13.8,11.7-24.1
		c0.9-3.9,1.6-8.4,2.2-13.7c0.2-1.8,0.5-4.1,0.7-6.8l0.3-3.3l0.3-3.3c0.9-8.6,1.5-20.1,2-34.6l0.3-8.7l0.3-8.7
		c0.3-6.6,0.5-12.3,0.9-17.3c0.1-1.5,1-2.3,2.7-2.4c1.5-0.1,3.3,0.5,5.4,1.6c2.1,1.1,3.8,2.5,5.3,4.1c1.5,1.7,2.3,3.3,2.2,4.8
		c-0.4,5.8-0.8,12.9-1.1,21.3l-0.4,10.7l-0.3,10.7C573.6,1069.1,572.5,1083.2,570.8,1094.3z"/>
	<path d="M639.5,1006.4c3.3,2.2,5.4,5.4,6.3,9.8c9.5,48.3,14.1,93.2,13.5,134.6c0,1.9-0.9,3-2.8,3.5c-1.7,0.5-3.5,0.1-5.4-1
		c-4.3-2.8-6.4-6.7-6.3-11.8c0.4-26.9-1.6-55.6-5.9-86.1l-5.7,32.6c-2.3,12.7-4.2,23.6-5.9,32.6c-0.4,1.8-1.3,3-2.8,3.5
		c-1.6,0.5-3.4,0.2-5.3-1.1c-3.2-2.1-5.3-5.3-6.3-9.7c-1.7-7.7-3-19.3-3.8-34.7l-0.4-8.8c-0.2-3.3-0.5-6.3-0.7-8.8
		c-0.5-6.6-1.3-12.4-2.3-17.5c-3.6,39.9-5.4,72.1-5.5,96.6c0,1.8-0.9,3-2.7,3.5c-1.8,0.5-3.6,0.1-5.4-1.1c-4.2-2.7-6.3-6.6-6.3-11.7
		c0-18,0.9-38.4,2.6-61.3c0.6-8.9,1.5-19.1,2.5-30.7l1.4-15.3l1.4-15.3c0.4-3.7,2.4-4.7,6-3c1.4,0.6,2.8,1.6,4.2,2.8
		c1.3,1.1,2.2,2.1,2.7,3c7.9,13.1,12.8,30.5,14.9,52.2c4.2-23.8,7.5-41.9,9.8-54.3c0.3-1.8,1.3-3,2.8-3.5
		C635.8,1004.9,637.6,1005.2,639.5,1006.4z"/>
	<path d="M716,1097.2c-11.2-0.1-20.5-0.8-28-2.1c-2,14.4-4.1,30.5-6.3,48.2c-0.3,2.2-1,4.2-2.1,6.1c-1.2,2-2.8,3.6-4.6,4.6
		c-1.6,0.9-3,1-4.2,0.3c-1.3-0.7-1.8-2-1.6-3.9c2.8-22.9,5.3-42.2,7.6-57.9c-1.5-0.4-2.9-0.8-4.2-1.3c-1.4-0.4-2.3-1.7-2.8-3.8
		c-0.5-1.9-0.6-4.1-0.3-6.4c0.4-2.4,1.1-4.3,2.2-5.6c1.2-1.5,2.6-1.9,4.3-1.4c0.9,0.3,2.1,0.6,3.5,1.1l1.8-10.8
		c2.8-16.3,5.6-30.7,8.5-43.4l0.4-1.8l0.4-1.9c0.3-1.5,0.6-2.9,0.9-4c0.8-3.1,1.6-5.9,2.5-8.1c2.4-6.2,5.5-10.5,9.5-12.8
		c3.8-2.2,7.2-1.7,10.3,1.5c2.5,2.6,4.3,6.2,5.2,10.7c0.9,4.2,1.6,9.9,2.2,16.8l0.3,4.3l0.3,4.3c0.3,3.3,0.5,6.1,0.8,8.4
		c4.7,38.1,7.7,67,8.9,86.8c0.3,4.5-1.4,8.2-5,11.3c-0.5,0.5-1.2,0.9-1.9,1.2c-0.8,0.4-1.6,0.6-2.3,0.7c-1.9,0.2-3-0.7-3.1-2.6
		C718.7,1124.9,717.5,1112,716,1097.2z M691.5,1071.6l-0.5,3l-0.4,3c6.2,1,14.1,1.5,23.4,1.6l-1.7-15.2c-0.3-2.3-0.6-5-1.1-8.2
		l-0.6-4.2l-0.6-4.1c-0.9-6.8-1.5-12.3-1.7-16.6c0-0.5,0-1.2,0-2.1l0-1.3v-1.4c-0.1-2.5-0.2-4.7-0.4-6.5c-0.5-5.5-1.8-9.3-3.8-11.2
		l-0.2,0.8c-0.6,2.3-1.3,5.2-2.1,8.7c-1.5,7-2.8,13.2-3.9,18.6C695.3,1049.1,693.2,1060.8,691.5,1071.6z"/>
	<path d="M794.7,1137c-0.3,2-1.2,3.9-2.7,5.7c-1.4,1.7-3.1,3-5,4c-0.5,0.2-1,0.4-1.6,0.6c-0.8,0.2-1.5,0.3-2.1,0.3
		c-1.7,0.1-2.7-0.6-2.9-2c-2.6-20.7-10.1-48.2-22.3-82.4c1.3,30,0.8,54-1.4,72.1c-0.3,2-1.2,3.9-2.7,5.7c-1.4,1.6-3,3-5,4
		c-1.5,0.8-3,1-4.5,0.8c-1.8-0.3-2.5-1.4-2.3-3.2c2.1-17,2.7-38.3,1.8-63.8c-0.2-4.2-0.4-9.6-0.7-16l-0.8-16
		c-0.5-12.7-0.8-23.4-0.9-31.9c0-1.1,0.6-2.5,1.9-4.2c1.3-1.7,2.7-3.2,4.4-4.4c1.8-1.4,3.4-2.1,4.8-2.3c1.6-0.2,2.7,0.6,3.2,2.2
		c2.7,8.5,7,21.1,13,37.8l3.4,9.4l3.3,9.5c2.4,7,4.6,13.3,6.4,18.9c-0.3-6.1-0.8-13.1-1.4-21.2l-0.9-10.6l-0.8-10.6
		c-1.4-17.7-2.3-31.9-2.6-42.4c0-1.4,0.7-3,2.2-4.8c1.4-1.7,3-3.1,4.9-4.2c2-1.2,3.7-1.7,5-1.5c1.5,0.2,2.3,1.3,2.4,3.3
		c0.3,9.8,1,22.1,2.1,36.9l0.7,9.2l0.7,9.2c0.6,7.3,1.1,13.5,1.4,18.4C797.8,1092.8,797.4,1117.4,794.7,1137z"/>
</g>
<g>
	<path d="M67.6,134.3c-0.8-1.1-1.8-2.3-2.9-3.8l-3-3.8c-2.7-3.3-4.7-5.9-6-7.6c-4.5-6.1-7.8-11.6-9.7-16.6
		c-2.3-5.8-3.5-12.1-3.5-18.9c0-6.5,1-13,3-19.3c2.1-6.4,5.1-12.2,8.9-17.3c4-5.4,8.7-9.7,14.1-12.9c1.8-1,3.8-1.5,6.1-1.5
		c2.2,0,4.3,0.5,6.3,1.3c1.5,0.7,2.7,1.7,3.5,3c0.9,1.6,0.5,2.9-1.1,3.9c-6.9,4.1-12.3,9.8-16.2,17.2c-3.6,6.8-5.8,14.5-6.5,23
		c-0.6,7.1,0.4,14,3,20.6c2.2,5.4,5.8,11.4,10.8,17.9c0.5,0.6,1,1.3,1.6,2.1l0.9,1.1l0.9,1.1c1.5,1.9,2.8,3.5,3.7,4.6
		c2.9,3.8,5,7.2,6.6,10.1c4.3,8.2,4.5,15.6,0.8,22c-3.6,6.2-8.6,10.3-15,12.2c-2.5,0.8-5.7,1.3-9.4,1.6c-1.4,0.1-3.1,0.2-5.1,0.3
		l-2.7,0.1l-2.7,0.1c-2.1,0.1-4.1-0.2-6-0.9c-2.4-0.9-3.9-2.1-4.5-3.8c-0.6-1.7,0.1-3,2-4c0.7-0.4,1.6-0.6,2.6-0.8
		c0.8-0.2,1.6-0.3,2.3-0.3c0.8,0,1.8,0,2.9,0h2.9c2.2,0,4.1-0.1,5.4-0.4c3.9-0.7,6.8-2.8,8.9-6.3C75,151,74,142.9,67.6,134.3z"/>
	<path d="M172.2,112.3c0,4.3-0.1,8.6-0.3,12.9c-0.5,9.8-2.3,18.1-5.5,25c-2.7,6-5.7,10.6-8.8,14c-4.4,4.8-9.1,7.2-14.3,7.3
		c-8.1,0.1-15.2-3.2-21.2-10.1c-4.8-5.5-8.6-12.7-11.4-21.7c-3.9-12.6-6.3-25.6-7-39.1c-0.9-14.6,0.3-27.8,3.4-39.5
		c2.1-7.6,4.4-13.7,6.9-18.1c3.7-6.5,8.3-10.7,13.9-12.8h0.2c0.3-0.2,0.7-0.4,1.2-0.5c6.4-1.7,13-0.7,19.9,2.9
		c6.6,3.5,11.4,8.3,14.4,14.3c2.5,4.9,4.3,10.6,5.5,17.3c0.7,4.1,1.4,10.1,2.1,18.1C172,92.2,172.3,102.2,172.2,112.3z M142.1,154.9
		c3.1-3.5,5.6-7.1,7.5-10.9c4.3-8.8,6.4-20,6.3-33.4c-0.2-15-0.7-27.8-1.5-38.4c0-0.2,0-0.4,0-0.7l0-0.5v-0.5l-0.1-1l0-1.1
		c-0.1-0.8-0.1-1.6-0.2-2.6l-0.1-1.2l-0.1-1.1c-0.4-4.1-1-7.7-1.8-10.7c-2.3-8.6-6.1-12.3-11.5-11c-8.8,3.8-14.8,12.8-18,26.9
		c-1.2,5.3-2,11.4-2.4,18c-0.3,5.5-0.2,10.8,0.1,15.9c0.6,11.3,2.1,22.1,4.4,32.4l0.3,1.4l0.3,1.5c0.1,0.6,0.3,1.2,0.4,1.8l0.1,0.7
		l0.1,0.7c0.6,2.5,1.2,4.8,1.9,6.8c1.7,5.3,3.9,9,6.7,11.1c0.1,0.1,0.2,0.2,0.3,0.3c1-0.1,1.9-0.4,2.7-0.9
		C139.7,157.1,141.2,155.9,142.1,154.9z M148.4,160.5c3.5-2.4,6.8-6.1,9.9-10.9c2.7-4.2,4.7-8.7,5.9-13.5c1.5-5.9,1.8-12.2,0.9-18.6
		C166.6,134.2,161,148.5,148.4,160.5z"/>
	<path d="M183.8,174.3c0-7.4-0.4-17.5-1-30.3l-0.4-7.6l-0.3-7.6c-0.3-5.7-0.4-10.7-0.5-15.2l0-3.3l0-3.4c-0.1-2.5-0.1-4.8-0.1-6.8
		c0-5.1,0.1-9.7,0.3-13.7c0.5-10.3,1.8-19.3,4-26.9c1.8-6.6,4-12.1,6.5-16.5c3.2-5.9,7.1-10.3,11.7-13.1c5.4-3.3,11.1-4.6,16.9-3.9
		c6.1,0.8,11,3.7,14.9,8.7c5,6.5,7.5,15.6,7.6,27.4c0,8.6-1.2,18.2-3.8,28.9c-4.1,17.1-11,28.2-20.7,33.3l2.8,4.5l2.8,4.5
		c2.1,3.4,3.8,6.4,5.3,9.1c3.7,6.9,6.5,13.4,8.2,19.3c0.4,1.5-0.2,2.9-1.7,4.2c-1.4,1.2-3.3,2.1-5.6,2.7c-2.3,0.5-4.5,0.6-6.3,0.2
		c-2.1-0.5-3.3-1.5-3.8-3c-1.8-6.2-4.8-13-8.9-20.4c-1.5-2.6-3.4-5.8-5.7-9.6l-3-4.8l-2.9-4.7l0.5,10.9l0.5,10.9
		c0.4,8.4,0.5,15.7,0.6,21.8c0,1.7-0.9,3.2-2.7,4.4c-1.6,1.2-3.6,2-6,2.5c-2.3,0.5-4.4,0.5-6,0C184.7,176.6,183.8,175.7,183.8,174.3
		z M199.6,80.7c-0.8,10.9-0.9,24.4-0.2,40.5c1.1-1.3,3-2.3,5.6-3c2.3-0.7,4.1-1,5.7-0.9c-0.7,0-0.8-0.2-0.3-0.5l0.1-0.1l0.2-0.1
		l0.4-0.3c0.4-0.3,0.7-0.5,0.9-0.8c2.2-2.8,3.8-5.4,4.9-7.9c3-7,5.2-14.8,6.5-23.3c1.4-9.4,1.9-17.6,1.3-24.6l-0.1-1l-0.1-1
		l-0.1-2.2c-0.2-1.7-0.4-3.1-0.6-4.4c-0.6-3.4-1.7-6-3.1-7.9l-0.7-0.9l-0.7-0.9c-0.5-0.7-1-1.4-1.5-1.9c-1.2-1.4-2.4-2.3-3.6-2.9
		c-0.1-0.1-0.2-0.1-0.3-0.2l-0.3,0.4c-2.7,2.8-5,6.4-6.9,10.8C202.9,56.5,200.5,67.5,199.6,80.7z"/>
	<path d="M255.3,174.3c0-7.4-0.4-17.5-1-30.3l-0.4-7.6l-0.3-7.6c-0.3-5.7-0.4-10.7-0.5-15.2l0-3.3l0-3.4c-0.1-2.5-0.1-4.8-0.1-6.8
		c0-5.1,0.1-9.7,0.3-13.7c0.5-10.3,1.8-19.3,4-26.9c1.8-6.6,4-12.1,6.5-16.5c3.2-5.9,7.1-10.3,11.7-13.1c5.4-3.3,11.1-4.6,16.9-3.9
		c6.1,0.8,11,3.7,14.9,8.7c5,6.5,7.5,15.6,7.6,27.4c0,8.6-1.2,18.2-3.8,28.9c-4.1,17.1-11,28.2-20.7,33.3l2.8,4.5l2.8,4.5
		c2.1,3.4,3.8,6.4,5.3,9.1c3.7,6.9,6.5,13.4,8.2,19.3c0.4,1.5-0.2,2.9-1.7,4.2c-1.4,1.2-3.3,2.1-5.6,2.7c-2.3,0.5-4.5,0.6-6.3,0.2
		c-2.1-0.5-3.3-1.5-3.8-3c-1.8-6.2-4.8-13-8.9-20.4c-1.5-2.6-3.4-5.8-5.7-9.6l-3-4.8l-2.9-4.7l0.5,10.9l0.5,10.9
		c0.4,8.4,0.5,15.7,0.6,21.8c0,1.7-0.9,3.2-2.7,4.4c-1.6,1.2-3.6,2-6,2.5c-2.3,0.5-4.4,0.5-6,0C256.2,176.6,255.3,175.7,255.3,174.3
		z M271.1,80.7c-0.8,10.9-0.9,24.4-0.2,40.5c1.1-1.3,3-2.3,5.6-3c2.3-0.7,4.1-1,5.7-0.9c-0.7,0-0.8-0.2-0.3-0.5l0.1-0.1l0.2-0.1
		l0.4-0.3c0.4-0.3,0.7-0.5,0.9-0.8c2.2-2.8,3.8-5.4,4.9-7.9c3-7,5.2-14.8,6.5-23.3c1.4-9.4,1.9-17.6,1.3-24.6l-0.1-1l-0.1-1
		l-0.1-2.2c-0.2-1.7-0.4-3.1-0.6-4.4c-0.6-3.4-1.7-6-3.1-7.9l-0.7-0.9l-0.7-0.9c-0.5-0.7-1-1.4-1.5-1.9c-1.2-1.4-2.4-2.3-3.6-2.9
		c-0.1-0.1-0.2-0.1-0.3-0.2l-0.3,0.4c-2.7,2.8-5,6.4-6.9,10.8C274.4,56.5,272.1,67.5,271.1,80.7z"/>
	<path d="M368,36.8c0.1-1.4,1.1-2.3,2.9-2.7c1.7-0.3,3.7-0.2,6,0.4c2.3,0.6,4.3,1.6,5.8,2.8c1.7,1.4,2.5,2.9,2.4,4.5l-0.9,11.4
		l-0.9,11.4c-0.8,8.7-1.7,16.3-2.7,22.6c-1.4,8.8-2.8,15.7-4.2,20.6c-2.2,7.6-5.2,13.8-9.1,18.8c-0.2,0.3-0.5,0.6-0.9,0.9l-0.1,9.5
		c0,3.6,0,6.8,0,9.6c0.1,7.1,0.4,13.5,0.9,19.1c0.2,1.4-0.4,3.1-1.7,5.1c-1.2,1.9-2.7,3.5-4.4,4.9c-1.8,1.4-3.4,2.2-4.7,2.2
		c-1.5,0-2.3-1-2.5-2.9c-0.6-6.5-1-14.3-0.9-23.4c0-2.7,0-6.6,0.1-11.7l0-5.9l0-5.8c0-0.9,0.2-1.8,0.4-2.8c-1.1-0.8-1.8-1.5-2.3-2.3
		c-6.4-10.8-12.1-24.4-17-40.9c-1.8-5.9-3.7-13.2-5.8-21.7l-1.4-5.4l-1.3-5.4c-1.1-4.6-2-8.2-2.6-10.6c-0.4-1.5,0.2-2.6,1.8-3.2
		c1.4-0.5,3.3-0.6,5.6-0.2c2.3,0.4,4.4,1.1,6.2,2.2c2,1.2,3.2,2.5,3.6,3.9c0.5,2.2,1.2,4.8,1.9,7.8l1.9,8c1.6,6.5,2.9,11.9,4.1,16.1
		c3.3,12.4,6.7,22.9,10.2,31.5c1.2-3.7,2.2-7.9,3.1-12.7c0.4-1.9,0.7-4,1.1-6.4c0.2-1.5,0.5-3.5,0.9-6.1c0.8-6.1,1.6-13.3,2.4-21.6
		l0.9-10.8L368,36.8z"/>
	<path d="M435.3,33.5c0-1.6,0.9-2.8,2.8-3.8c1.7-0.8,3.7-1.3,6.2-1.3c2.4,0,4.5,0.4,6.2,1.2c1.9,0.9,2.8,2.1,2.8,3.7
		c0,19.7-0.7,42.4-2,68.1c-0.5,9.5-1.1,20.8-1.9,34l-1.1,17l-1,17c-0.1,1.6-1.1,2.8-3,3.7c-1.7,0.8-3.8,1.3-6.2,1.3
		c-2.4,0-4.4-0.4-6.1-1.3c-1.8-0.9-2.7-2.1-2.6-3.6l1.1-17l1-17c0.8-13.2,1.4-24.6,1.9-34C434.6,75.9,435.3,53.2,435.3,33.5z"/>
	<path d="M501.9,17.3c13.4-3.8,25,0.9,34.9,14c3.8,5.1,7.3,11.3,10.5,18.8c2.4,5.6,4.7,12,6.8,19.2c9.6,32.5,9.9,60,0.7,82.4
		c-5.5,13.5-14.9,22.3-28,26.4c-6.5,2.1-12.4,1.5-17.6-1.7c-4.9-3-8.5-7.8-10.9-14.4c-1.4-3.9-2.2-8.8-2.5-14.6
		c-0.1-2-0.1-4.5-0.1-7.6l0-3.7c0-1.4,0-2.6,0-3.6c-0.1-11.7,0.1-23.3,0.5-34.9c0.4-9.9,1-21.6,1.8-35l1.1-17.5l1.1-17.5
		c0.1-1.2,0.3-2.1,0.6-2.7c-0.7-1.9-1-3.5-0.9-4.9C500,18.6,500.7,17.6,501.9,17.3z M543.8,138.8c7-18.7,7.4-40.3,1.2-64.9
		c-0.7-2.6-1.3-4.8-1.7-6.5c-0.7-2.6-1.5-5.1-2.2-7.3c-1.9-5.8-4-10.6-6.3-14.5c-6.2-10.6-13.9-14.9-23.1-12.8
		c0.4,1.1,0.5,2.1,0.5,2.9l-0.9,13.9l-0.9,13.8c-0.7,11-1.2,20.3-1.6,27.8c-1.1,21.2-1.4,39.7-1,55.7c0,0.8,0,1.9,0,3.4l0,3.5
		c0,2.8,0.2,5,0.6,6.8c0.1,0.6,0.2,1.1,0.2,1.4c0,0.1,0,0.2,0,0.3v0.1v0c0,0,0,0,0,0c0.1,0,0.1,0,0.2,0c0.1,0,0.2,0.1,0.4,0.1
		c4.2,1.3,9.4,0.5,15.6-2.6C533.8,155.5,540.2,148.4,543.8,138.8z"/>
	<path d="M644.3,112.3c0,4.3-0.1,8.6-0.3,12.9c-0.5,9.8-2.3,18.1-5.5,25c-2.7,6-5.7,10.6-8.8,14c-4.4,4.8-9.1,7.2-14.3,7.3
		c-8.1,0.1-15.2-3.2-21.2-10.1c-4.8-5.5-8.6-12.7-11.4-21.7c-3.9-12.6-6.3-25.6-7-39.1c-0.9-14.6,0.3-27.8,3.4-39.5
		c2.1-7.6,4.4-13.7,6.9-18.1c3.7-6.5,8.3-10.7,13.9-12.8h0.2c0.3-0.2,0.7-0.4,1.2-0.5c6.4-1.7,13-0.7,19.9,2.9
		c6.6,3.5,11.4,8.3,14.4,14.3c2.5,4.9,4.3,10.6,5.5,17.3c0.7,4.1,1.4,10.1,2.1,18.1C644.1,92.2,644.4,102.2,644.3,112.3z
		 M614.3,154.9c3.1-3.5,5.6-7.1,7.5-10.9c4.3-8.8,6.4-20,6.3-33.4c-0.2-15-0.7-27.8-1.5-38.4c0-0.2,0-0.4,0-0.7l0-0.5v-0.5l-0.1-1
		l0-1.1c-0.1-0.8-0.1-1.6-0.2-2.6l-0.1-1.2l-0.1-1.1c-0.4-4.1-1-7.7-1.8-10.7c-2.3-8.6-6.1-12.3-11.5-11c-8.8,3.8-14.8,12.8-18,26.9
		c-1.2,5.3-2,11.4-2.4,18c-0.3,5.5-0.2,10.8,0.1,15.9c0.6,11.3,2.1,22.1,4.4,32.4l0.3,1.4l0.3,1.5c0.1,0.6,0.3,1.2,0.4,1.8l0.1,0.7
		l0.1,0.7c0.6,2.5,1.2,4.8,1.9,6.8c1.7,5.3,3.9,9,6.7,11.1c0.1,0.1,0.2,0.2,0.3,0.3c1-0.1,1.9-0.4,2.7-0.9
		C611.8,157.1,613.4,155.9,614.3,154.9z M620.5,160.5c3.5-2.4,6.8-6.1,9.9-10.9c2.7-4.2,4.7-8.7,5.9-13.5c1.5-5.9,1.8-12.2,0.9-18.6
		C638.7,134.2,633.1,148.5,620.5,160.5z"/>
	<path d="M706.5,163.4c-0.3,2-1.2,3.9-2.7,5.7c-1.4,1.7-3.1,3-5,4c-0.5,0.2-1,0.4-1.6,0.6c-0.8,0.2-1.5,0.3-2.1,0.3
		c-1.7,0.1-2.7-0.6-2.9-2c-2.6-20.7-10.1-48.2-22.3-82.4c1.3,30,0.8,54-1.4,72.1c-0.3,2-1.2,3.9-2.7,5.7c-1.4,1.6-3,3-5,4
		c-1.5,0.8-3,1-4.5,0.8c-1.8-0.3-2.5-1.4-2.3-3.2c2.1-17,2.7-38.3,1.8-63.8c-0.2-4.2-0.4-9.6-0.7-16l-0.8-16
		c-0.5-12.7-0.8-23.4-0.9-31.9c0-1.1,0.6-2.5,1.9-4.2c1.3-1.7,2.7-3.2,4.4-4.4c1.8-1.4,3.4-2.1,4.8-2.3c1.6-0.2,2.7,0.6,3.2,2.2
		c2.7,8.5,7,21.1,13,37.8l3.4,9.4l3.3,9.5c2.4,7,4.6,13.3,6.4,18.9c-0.3-6.1-0.8-13.1-1.4-21.2l-0.9-10.6l-0.8-10.6
		c-1.4-17.7-2.3-31.9-2.6-42.4c0-1.4,0.7-3,2.2-4.8c1.4-1.7,3-3.1,4.9-4.2c2-1.2,3.7-1.7,5-1.5c1.5,0.2,2.3,1.3,2.4,3.3
		c0.3,9.8,1,22.1,2.1,36.9l0.7,9.2l0.7,9.2c0.6,7.3,1.1,13.5,1.4,18.4C709.6,119.2,709.2,143.8,706.5,163.4z"/>
	<path d="M769.6,162.2c1.4-16.7,2-36.5,1.7-59.3c-0.1-7.3-0.4-17.2-0.7-29.7l-0.5-14.9l-0.3-14.8c-5,0.1-9.6-0.1-13.9-0.6
		c-1.5-0.2-2.4-1.2-2.9-3.1c-0.4-1.7-0.3-3.8,0.3-6.1c0.6-2.3,1.5-4.3,2.8-5.8c1.4-1.7,2.9-2.5,4.5-2.3c8.1,0.9,19.7,0.4,34.7-1.6
		c1.7-0.2,2.9,0.5,3.6,2.2c0.6,1.5,0.7,3.5,0.4,5.8c-0.4,2.4-1.1,4.4-2.1,6.1c-1.2,2-2.5,3-4,3.2l-6.2,0.8l0.4,14.6l0.4,14.6
		c0.4,12.1,0.6,21.8,0.7,29.2c0.3,22.4-0.2,41.8-1.6,58.3c-0.1,1.5-1.1,2.9-3,4.2c-1.7,1.2-3.7,2-6,2.6c-2.4,0.5-4.3,0.5-5.8,0
		C770.3,165,769.5,163.9,769.6,162.2z"/>
</g>
<path d="M720.4,38.2c0,0,32.4-20.7,18.5-22.9S720.4,38.2,720.4,38.2z"/>
</svg>
